<mxfile host="app.diagrams.net" modified="2024-05-23T08:40:12.412Z" agent="Mozilla/5.0 (Windows NT 10.0; Win64; x64) AppleWebKit/537.36 (KHTML, like Gecko) Chrome/124.0.0.0 Safari/537.36" etag="Xr0r855syujNJvRubtCZ" version="24.4.6" type="device">
  <diagram name="Page-1" id="hulA7HbLjxlJ7WIDWfl5">
    <mxGraphModel dx="837" dy="908" grid="1" gridSize="10" guides="1" tooltips="1" connect="1" arrows="1" fold="1" page="1" pageScale="1" pageWidth="850" pageHeight="1100" math="0" shadow="0">
      <root>
        <mxCell id="0" />
        <mxCell id="1" parent="0" />
        <mxCell id="D_eS5ubp1K7BHTw4Vdkg-36" value="&lt;i&gt;sIdle&lt;/i&gt;&lt;div&gt;-----------------------------------&lt;/div&gt;&lt;div&gt;&lt;div&gt;noNewDataReceiver = 0&lt;br&gt;&lt;/div&gt;&lt;div&gt;noNewDataSender = 0&lt;/div&gt;&lt;/div&gt;&lt;div&gt;&lt;br&gt;&lt;/div&gt;&lt;div&gt;&lt;br&gt;&lt;/div&gt;&lt;div&gt;&lt;br&gt;&lt;/div&gt;&lt;div&gt;&lt;br&gt;&lt;/div&gt;" style="ellipse;whiteSpace=wrap;html=1;" parent="1" vertex="1">
          <mxGeometry x="952.5" y="175" width="160" height="150" as="geometry" />
        </mxCell>
        <mxCell id="mFO4UZZImVrD0MQ-eHCr-6" style="edgeStyle=orthogonalEdgeStyle;rounded=0;orthogonalLoop=1;jettySize=auto;html=1;exitX=1;exitY=0.5;exitDx=0;exitDy=0;entryX=0;entryY=0;entryDx=0;entryDy=0;curved=1;" edge="1" parent="1" source="D_eS5ubp1K7BHTw4Vdkg-38" target="D_eS5ubp1K7BHTw4Vdkg-40">
          <mxGeometry relative="1" as="geometry">
            <Array as="points">
              <mxPoint x="1490" y="79" />
            </Array>
          </mxGeometry>
        </mxCell>
        <mxCell id="D_eS5ubp1K7BHTw4Vdkg-38" value="&lt;div&gt;&lt;i&gt;sNewActionReceived&lt;/i&gt;&lt;br&gt;&lt;/div&gt;&lt;div&gt;-----------------------------------&lt;/div&gt;&lt;div&gt;&lt;font style=&quot;font-size: 9px;&quot;&gt;regRequestedActionOfThePacketOutput&lt;br&gt;&lt;/font&gt;&lt;/div&gt;&lt;div&gt;&lt;font style=&quot;font-size: 9px;&quot;&gt;=&amp;nbsp;ÙŽ(adequate response)&lt;/font&gt;&lt;/div&gt;&lt;div&gt;&lt;font style=&quot;font-size: 11px;&quot;&gt;lastError = (if invalid action rcvd)&lt;br&gt;&lt;/font&gt;&lt;/div&gt;&lt;div&gt;&lt;br&gt;&lt;/div&gt;&lt;div&gt;&lt;br&gt;&lt;/div&gt;&lt;div&gt;&lt;br&gt;&lt;/div&gt;" style="ellipse;whiteSpace=wrap;html=1;" parent="1" vertex="1">
          <mxGeometry x="1196" y="4" width="160" height="150" as="geometry" />
        </mxCell>
        <mxCell id="mFO4UZZImVrD0MQ-eHCr-3" style="edgeStyle=orthogonalEdgeStyle;rounded=0;orthogonalLoop=1;jettySize=auto;html=1;exitX=0;exitY=1;exitDx=0;exitDy=0;entryX=1;entryY=0.5;entryDx=0;entryDy=0;curved=1;" edge="1" parent="1" source="D_eS5ubp1K7BHTw4Vdkg-40" target="D_eS5ubp1K7BHTw4Vdkg-43">
          <mxGeometry relative="1" as="geometry">
            <Array as="points">
              <mxPoint x="1490" y="435" />
            </Array>
          </mxGeometry>
        </mxCell>
        <mxCell id="D_eS5ubp1K7BHTw4Vdkg-40" value="&lt;div&gt;&lt;i&gt;sSendResponse&lt;/i&gt;&lt;br&gt;&lt;/div&gt;&lt;div&gt;-----------------------------------&lt;/div&gt;&lt;div&gt;&lt;div&gt;&lt;span style=&quot;background-color: initial;&quot;&gt;noNewDataReceiver&amp;nbsp;&lt;/span&gt;&lt;span style=&quot;background-color: initial;&quot;&gt;= 1&lt;/span&gt;&lt;br&gt;&lt;/div&gt;&lt;div&gt;&lt;span style=&quot;background-color: initial;&quot;&gt;beginSendingBuffer = 1&lt;br&gt;&lt;/span&gt;&lt;/div&gt;&lt;div&gt;dataValidOutput = (if needed)&lt;/div&gt;&lt;/div&gt;&lt;div&gt;sendIngData = (module data)&lt;/div&gt;&lt;div&gt;&lt;br&gt;&lt;/div&gt;&lt;div&gt;&lt;br&gt;&lt;/div&gt;" style="ellipse;whiteSpace=wrap;html=1;" parent="1" vertex="1">
          <mxGeometry x="1467" y="175" width="160" height="150" as="geometry" />
        </mxCell>
        <mxCell id="mFO4UZZImVrD0MQ-eHCr-10" style="edgeStyle=orthogonalEdgeStyle;rounded=0;orthogonalLoop=1;jettySize=auto;html=1;exitX=0;exitY=0.5;exitDx=0;exitDy=0;entryX=0.5;entryY=1;entryDx=0;entryDy=0;curved=1;" edge="1" parent="1" source="D_eS5ubp1K7BHTw4Vdkg-43" target="D_eS5ubp1K7BHTw4Vdkg-36">
          <mxGeometry relative="1" as="geometry" />
        </mxCell>
        <mxCell id="D_eS5ubp1K7BHTw4Vdkg-43" value="&lt;div&gt;&lt;font style=&quot;font-size: 11px;&quot;&gt;&lt;i&gt;sDone&lt;/i&gt;&lt;/font&gt;&lt;/div&gt;&lt;div&gt;------------------------------------&lt;/div&gt;&lt;div&gt;&lt;div&gt;&lt;span style=&quot;background-color: initial;&quot;&gt;rdWrAddr = (tp of pckt offset)&lt;/span&gt;&lt;br&gt;&lt;/div&gt;&lt;div&gt;noNewDataReceiver = 1&lt;br&gt;&lt;/div&gt;&lt;/div&gt;&lt;div&gt;noNewDataSender = 1&lt;br&gt;&lt;/div&gt;&lt;div&gt;beginSendingBuffer = 0&lt;br&gt;&lt;/div&gt;&lt;div&gt;&#39;&lt;/div&gt;&lt;div&gt;&lt;br&gt;&lt;/div&gt;" style="ellipse;whiteSpace=wrap;html=1;" parent="1" vertex="1">
          <mxGeometry x="1195" y="355" width="162" height="160" as="geometry" />
        </mxCell>
        <mxCell id="D_eS5ubp1K7BHTw4Vdkg-49" value="" style="endArrow=classic;html=1;rounded=0;exitX=0.25;exitY=1;exitDx=0;exitDy=0;entryX=0;entryY=0;entryDx=0;entryDy=0;" parent="1" edge="1">
          <mxGeometry width="50" height="50" relative="1" as="geometry">
            <mxPoint x="954" y="75" as="sourcePoint" />
            <mxPoint x="953.4314575050762" y="226.96699141100885" as="targetPoint" />
            <Array as="points" />
          </mxGeometry>
        </mxCell>
        <mxCell id="D_eS5ubp1K7BHTw4Vdkg-50" value="&lt;b&gt;Reset&lt;/b&gt;" style="text;html=1;align=left;verticalAlign=middle;whiteSpace=wrap;rounded=0;" parent="1" vertex="1">
          <mxGeometry x="936" y="50" width="60" height="30" as="geometry" />
        </mxCell>
        <mxCell id="D_eS5ubp1K7BHTw4Vdkg-51" value="&lt;b&gt;requestedActionOfThePacketInputValid&lt;/b&gt;&lt;b style=&quot;font-size: 11px;&quot;&gt;= 1&amp;nbsp;&lt;/b&gt;" style="text;html=1;align=center;verticalAlign=middle;whiteSpace=wrap;rounded=0;rotation=0;fontSize=11;" parent="1" vertex="1">
          <mxGeometry x="960" y="30" width="262" height="30" as="geometry" />
        </mxCell>
        <mxCell id="D_eS5ubp1K7BHTw4Vdkg-55" value="&lt;font style=&quot;font-size: 34px;&quot;&gt;Moore FSM of hwdbg&#39;s Interpreter Module&lt;/font&gt;" style="text;html=1;align=center;verticalAlign=middle;whiteSpace=wrap;rounded=0;fontStyle=1;fontSize=38;" parent="1" vertex="1">
          <mxGeometry x="1112.5" y="255" width="327" height="30" as="geometry" />
        </mxCell>
        <mxCell id="9YI7QHExZsk4u2D17l36-2" value="&lt;b&gt;requestedActionOfThePacketInputValid&lt;/b&gt;&lt;b style=&quot;font-size: 11px;&quot;&gt;= 0&amp;nbsp;&lt;/b&gt;" style="text;html=1;align=center;verticalAlign=middle;whiteSpace=wrap;rounded=0;rotation=0;fontSize=11;" parent="1" vertex="1">
          <mxGeometry x="850" y="341" width="238" height="30" as="geometry" />
        </mxCell>
        <mxCell id="9YI7QHExZsk4u2D17l36-3" value="&lt;b&gt;noNewDataSenderModule = 1&lt;/b&gt;" style="text;html=1;align=center;verticalAlign=middle;whiteSpace=wrap;rounded=0;rotation=0;fontSize=11;" parent="1" vertex="1">
          <mxGeometry x="1268" y="340" width="262" height="30" as="geometry" />
        </mxCell>
        <mxCell id="9YI7QHExZsk4u2D17l36-5" value="&lt;b&gt;sendWaitForBuffer = 0&lt;/b&gt;" style="text;html=1;align=center;verticalAlign=middle;whiteSpace=wrap;rounded=0;rotation=0;fontSize=11;" parent="1" vertex="1">
          <mxGeometry x="1464" y="124" width="220" height="30" as="geometry" />
        </mxCell>
        <mxCell id="mFO4UZZImVrD0MQ-eHCr-8" style="edgeStyle=orthogonalEdgeStyle;rounded=0;orthogonalLoop=1;jettySize=auto;html=1;exitX=0.5;exitY=0;exitDx=0;exitDy=0;entryX=-0.006;entryY=0.407;entryDx=0;entryDy=0;entryPerimeter=0;curved=1;" edge="1" parent="1" source="D_eS5ubp1K7BHTw4Vdkg-36" target="D_eS5ubp1K7BHTw4Vdkg-38">
          <mxGeometry relative="1" as="geometry" />
        </mxCell>
        <mxCell id="mFO4UZZImVrD0MQ-eHCr-9" style="edgeStyle=orthogonalEdgeStyle;rounded=0;orthogonalLoop=1;jettySize=auto;html=1;exitX=0.5;exitY=0;exitDx=0;exitDy=0;entryX=1;entryY=0;entryDx=0;entryDy=0;curved=1;" edge="1" parent="1" source="D_eS5ubp1K7BHTw4Vdkg-40" target="D_eS5ubp1K7BHTw4Vdkg-40">
          <mxGeometry relative="1" as="geometry">
            <Array as="points">
              <mxPoint x="1547" y="155" />
              <mxPoint x="1647" y="155" />
              <mxPoint x="1647" y="197" />
            </Array>
          </mxGeometry>
        </mxCell>
        <mxCell id="mFO4UZZImVrD0MQ-eHCr-11" style="edgeStyle=orthogonalEdgeStyle;rounded=0;orthogonalLoop=1;jettySize=auto;html=1;exitX=0;exitY=0.5;exitDx=0;exitDy=0;entryX=0;entryY=1;entryDx=0;entryDy=0;curved=1;" edge="1" parent="1" source="D_eS5ubp1K7BHTw4Vdkg-36" target="D_eS5ubp1K7BHTw4Vdkg-36">
          <mxGeometry relative="1" as="geometry" />
        </mxCell>
      </root>
    </mxGraphModel>
  </diagram>
</mxfile>
